<svg xmlns="http://www.w3.org/2000/svg" viewBox="0 0 800 600" width="100%" height="100%">
<defs><filter id="shadow"><feDropShadow dx="2" dy="2" stdDeviation="3" flood-color="rgba(0,0,0,0.1)"/></filter></defs>
<rect width="800" height="600" fill="#87CEEB"/><rect y="400" width="800" height="200" fill="#7CCD7C"/><circle cx="650" cy="80" r="50" fill="#FFD700" opacity="0.8"/>
<ellipse cx="200" cy="360" rx="20" ry="30" fill="#FFD700" stroke="#333" stroke-width="1.5"/>
<circle cx="200" cy="300" r="30" fill="#FFE4C4" stroke="#333" stroke-width="1.5"/>
<path d="M170,300 Q170,270 200,270 Q230,270 230,300" fill="#FFB347" stroke="#333" stroke-width="1"/>
<path d="M180,298 Q188,301 196,298" fill="none" stroke="#228B22" stroke-width="2"/><path d="M204,298 Q212,301 220,298" fill="none" stroke="#228B22" stroke-width="2"/>
<path d="M188,310 Q200,325 212,310" fill="none" stroke="#333" stroke-width="2.5" stroke-linecap="round"/>
<ellipse cx="400" cy="346" rx="22" ry="33" fill="#FFD700" stroke="#333" stroke-width="1.5"/>
<circle cx="400" cy="280" r="33" fill="#FFF8DC" stroke="#333" stroke-width="1.5"/>
<path d="M367,280 Q367,247 400,247 Q433,247 433,280" fill="#FF8C00" stroke="#333" stroke-width="1"/>
<circle cx="387" cy="278" r="5" fill="#333"/><circle cx="413" cy="278" r="5" fill="#333"/>
<path d="M388,291 Q400,306 412,291" fill="none" stroke="#333" stroke-width="2.5" stroke-linecap="round"/>
<ellipse cx="600" cy="360" rx="20" ry="30" fill="#B0E0E6" stroke="#333" stroke-width="1.5"/>
<circle cx="600" cy="300" r="30" fill="#F8D5C0" stroke="#333" stroke-width="1.5"/>
<path d="M570,300 Q570,270 600,270 Q630,270 630,300" fill="#B8D4E3" stroke="#333" stroke-width="1"/>
<path d="M580,298 Q588,301 596,298" fill="none" stroke="#4A90D9" stroke-width="2"/><path d="M604,298 Q612,301 620,298" fill="none" stroke="#4A90D9" stroke-width="2"/>
<path d="M588,310 Q600,325 612,310" fill="none" stroke="#333" stroke-width="2.5" stroke-linecap="round"/>
</svg>